<?xml version="1.0" encoding="iso-8859-1"?>
<!-- Generator: Adobe Illustrator 19.0.0, SVG Export Plug-In . SVG Version: 6.00 Build 0)  -->
<svg version="1.1" id="Capa_1" xmlns="http://www.w3.org/2000/svg" xmlns:xlink="http://www.w3.org/1999/xlink" x="0px" y="0px"
	 viewBox="0 0 64 64" style="enable-background:new 0 0 64 64;" xml:space="preserve">
<g>
	<g id="branding-dna-creativity-corporate-identity_1_">
		<path d="M45,17V3c0-1.654-1.346-3-3-3s-3,1.346-3,3v4H25V3c0-1.654-1.346-3-3-3s-3,1.346-3,3v14c0,3.894,1.745,7.532,4.712,9.993
			C20.836,29.38,19,32.979,19,37v13c0,1.487,1.091,2.716,2.513,2.951L27,58.987V59h0.012l4.248,4.673C31.45,63.881,31.718,64,32,64
			c0.282,0,0.55-0.119,0.74-0.327L36.988,59H37v-0.013l5.487-6.036C43.909,52.716,45,51.487,45,50V37
			c0-3.894-1.745-7.532-4.712-9.993C43.164,24.62,45,21.021,45,17z M38.705,19h-13.41C25.105,18.366,25,17.695,25,17h14
			C39,17.695,38.895,18.366,38.705,19z M37.736,21c-1.267,1.811-3.364,3-5.736,3s-4.47-1.189-5.736-3H37.736z M39,15H25v-2h14V15z
			 M39,9v2H25V9H39z M21,17V3c0-0.551,0.449-1,1-1s1,0.449,1,1v14c0,3.338,1.831,6.252,4.538,7.805
			c-0.734,0.269-1.435,0.6-2.101,0.991C22.657,23.718,21,20.484,21,17z M21,37c0-6.065,4.935-11,11-11c4.962,0,9-4.038,9-9V3
			c0-0.551,0.449-1,1-1s1,0.449,1,1v14c0,6.065-4.935,11-11,11c-4.962,0-9,4.038-9,9v13c0,0.552-0.449,1-1,1s-1-0.448-1-1V37z
			 M25.295,35h13.41C38.895,35.634,39,36.305,39,37H25C25,36.305,25.105,35.634,25.295,35z M25,39h14v2H25V39z M25,50v-0.586l1-1
			l2.293,2.293c0.391,0.391,1.023,0.391,1.414,0L32,48.414l2.293,2.293C34.488,50.902,34.744,51,35,51s0.512-0.098,0.707-0.293
			L38,48.414l1,1V50c0,1.003,0.499,1.886,1.256,2.431L36.103,57h-8.206l-4.153-4.569C24.501,51.886,25,51.003,25,50z M38.707,46.293
			c-0.391-0.391-1.023-0.391-1.414,0L35,48.586l-2.293-2.293c-0.391-0.391-1.023-0.391-1.414,0L29,48.586l-2.293-2.293
			c-0.391-0.391-1.023-0.391-1.414,0L25,46.586V43h14v3.586L38.707,46.293z M26.264,33c1.267-1.811,3.364-3,5.736-3
			s4.47,1.189,5.736,3H26.264z M32,61.514L29.715,59h4.57L32,61.514z M43,37v13c0,0.552-0.449,1-1,1s-1-0.448-1-1V37
			c0-3.338-1.831-6.252-4.538-7.805c0.734-0.269,1.435-0.6,2.101-0.991C41.343,30.282,43,33.516,43,37z"/>
	</g>
	<g id="Layer_1">
	</g>
	<g>
	</g>
	<g>
	</g>
	<g>
	</g>
	<g>
	</g>
	<g>
	</g>
	<g>
	</g>
	<g>
	</g>
	<g>
	</g>
	<g>
	</g>
	<g>
	</g>
	<g>
	</g>
	<g>
	</g>
	<g>
	</g>
	<g>
	</g>
	<g>
	</g>
</g>
<g>
</g>
<g>
</g>
<g>
</g>
<g>
</g>
<g>
</g>
<g>
</g>
<g>
</g>
<g>
</g>
<g>
</g>
<g>
</g>
<g>
</g>
<g>
</g>
<g>
</g>
<g>
</g>
<g>
</g>
</svg>
