<?xml version="1.0" encoding="iso-8859-1"?>
<!-- Generator: Adobe Illustrator 19.0.0, SVG Export Plug-In . SVG Version: 6.00 Build 0)  -->
<svg version="1.1" id="Layer_1" xmlns="http://www.w3.org/2000/svg" xmlns:xlink="http://www.w3.org/1999/xlink" x="0px" y="0px"
	 viewBox="0 0 512.001 512.001" style="enable-background:new 0 0 512.001 512.001;" xml:space="preserve">
<g>
	<g>
		<path d="M316.327,256.001c66.682-46.833,92.519-154.223,92.519-236C408.845,8.955,399.89,0,388.845,0s-20.001,8.955-20.001,20.001
			c0,12.589-0.581,25.001-1.708,37.148h-54.606c-11.046,0-20.001,8.955-20.001,20.001s8.955,20.001,20.001,20.001h48.702
			c-3.721,18.107-8.764,35.266-15.05,51.084h-115.59c-11.046,0-20.001,8.955-20.001,20.001c0,11.046,8.955,20.001,20.001,20.001
			h95.134c-64.056,97.955-149.087,34.762-174.956-91.085h96.123c11.046,0,20.001-8.955,20.001-20.001s-8.955-20.001-20.001-20.001
			H144.864c-1.127-12.147-1.708-24.56-1.708-37.148C143.156,8.955,134.201,0,123.155,0c-11.046,0-20.001,8.955-20.001,20.001
			c0,124.502,48.235,204.9,92.517,236c-49.11,34.491-92.517,119.419-92.517,236c0,11.046,8.955,20.001,20.001,20.001
			c11.046,0,20.001-8.955,20.001-20.001c0-12.589,0.581-25.001,1.708-37.148h54.608c11.046,0,20.001-8.955,20.001-20.001
			c0-11.046-8.955-20.001-20.001-20.001h-48.703c3.721-18.107,8.764-35.266,15.05-51.084H281.41
			c11.046,0,20.001-8.955,20.001-20.001c0-11.046-8.955-20.001-20.001-20.001h-95.135c64.056-97.956,149.085-34.762,174.956,91.085
			H265.11c-11.046,0-20.001,8.955-20.001,20.001c0,11.046,8.955,20.001,20.001,20.001h102.027
			c1.127,12.147,1.708,24.56,1.708,37.148c0,11.046,8.955,20.001,20.001,20.001s20.001-8.955,20.001-20.001
			C408.845,367.606,360.678,287.149,316.327,256.001z"/>
	</g>
</g>
<g>
</g>
<g>
</g>
<g>
</g>
<g>
</g>
<g>
</g>
<g>
</g>
<g>
</g>
<g>
</g>
<g>
</g>
<g>
</g>
<g>
</g>
<g>
</g>
<g>
</g>
<g>
</g>
<g>
</g>
</svg>
